<?xml version="1.0" encoding="UTF-8"?>
<svg width="242px" height="121px" viewBox="0 0 242 121" version="1.1" xmlns="http://www.w3.org/2000/svg" xmlns:xlink="http://www.w3.org/1999/xlink">
    <!-- Generator: Sketch 52.5 (67469) - http://www.bohemiancoding.com/sketch -->
    <title>logo flash</title>
    <desc>Created with Sketch.</desc>
    <g id="logo-flash" stroke="none" stroke-width="1" fill="none" fill-rule="evenodd">
        <g id="Group-2">
            <path d="M11.2219607,79.2823359 L11.2219607,92.3587412 L33.4908813,92.3587412 L33.4908813,101.547566 L11.2219607,101.547566 L11.2219607,119.571801 L0.0875003576,119.571801 L0.0875003576,70.0935106 L36.4463245,70.0935106 L36.4463245,79.2823359 L11.2219607,79.2823359 Z M47.7378845,70.0935106 L58.8723448,70.0935106 L58.8723448,110.241609 L82.9970089,110.241609 L82.9970089,119.571801 L47.7378845,119.571801 L47.7378845,70.0935106 Z M125.080163,108.96931 L102.742511,108.96931 L98.4811743,119.571801 L87.071789,119.571801 L108.515935,70.0935106 L119.512933,70.0935106 L141.02581,119.571801 L129.3415,119.571801 L125.080163,108.96931 Z M121.57487,100.275268 L113.945703,81.3321508 L106.316535,100.275268 L121.57487,100.275268 Z M165.582498,120.42 C161.779351,120.42 158.102267,119.889881 154.551135,118.829626 C151.000003,117.769372 148.147685,116.391062 145.994096,114.694655 L149.774314,106.071296 C151.836261,107.626336 154.287651,108.875061 157.128556,109.817509 C159.969462,110.759958 162.810324,111.231175 165.65123,111.231175 C168.812882,111.231175 171.149721,110.748177 172.661816,109.782168 C174.173911,108.816158 174.929947,107.532091 174.929947,105.929929 C174.929947,104.751869 174.483198,103.774093 173.589687,102.996574 C172.696177,102.219054 171.550668,101.594691 170.153126,101.123467 C168.755583,100.652243 166.865493,100.133904 164.482799,99.5684349 C160.817114,98.673109 157.81588,97.7777965 155.479007,96.8824705 C153.142133,95.9871446 151.137492,94.5499325 149.465023,92.570791 C147.792555,90.5916495 146.956333,87.9528337 146.956333,84.6542646 C146.956333,81.7797971 147.712369,79.1763227 149.224464,76.843763 C150.736559,74.5112034 153.016122,72.6616763 156.063222,71.2951262 C159.110322,69.9285761 162.833227,69.2453113 167.232048,69.2453113 C170.302059,69.2453113 173.303293,69.622285 176.23584,70.3762437 C179.168387,71.1302024 181.734328,72.2140017 183.933739,73.6276742 L180.497177,82.3217166 C176.052535,79.7299837 171.607959,78.4341367 167.163317,78.4341367 C164.047485,78.4341367 161.745012,78.9524755 160.255828,79.9891686 C158.766643,81.0258618 158.022062,82.3923914 158.022062,84.0887984 C158.022062,85.7852054 158.881194,87.0457111 160.599484,87.8703534 C162.317773,88.6949957 164.940989,89.5078452 168.46921,90.3089263 C172.134895,91.2042522 175.136129,92.0995647 177.473002,92.9948906 C179.809876,93.8902165 181.814517,95.3038678 183.486986,97.2358869 C185.159454,99.167906 185.995676,101.783161 185.995676,105.08173 C185.995676,107.909075 185.228185,110.488989 183.693179,112.821548 C182.158174,115.154108 179.855701,117.003635 176.78569,118.370185 C173.715679,119.736735 169.98132,120.42 165.582498,120.42 Z M241.481421,70.0935106 L241.481421,119.571801 L230.34696,119.571801 L230.34696,99.2857018 L208.490427,99.2857018 L208.490427,119.571801 L197.355967,119.571801 L197.355967,70.0935106 L208.490427,70.0935106 L208.490427,89.6020936 L230.34696,89.6020936 L230.34696,70.0935106 L241.481421,70.0935106 Z" id="FLASH" fill="#FFFFFF"></path>
            <g id="lightning-copy" transform="translate(59.000000, 0.000000)">
                <path d="M23.5873779,102.460037 L62.7086407,34.0527243 C63.5943207,32.5039014 62.3382042,30.5979984 60.5906156,30.8394048 L34.5681455,34.4313299 L40.7857338,1.28181423 C40.9953177,0.164304073 39.5765657,-0.476026232 38.9002715,0.430655729 L0.435493465,51.9930372 C-0.684928345,53.4947858 0.501458894,55.630226 2.34650994,55.4330775 L31.0361227,52.3662112 L21.6307997,101.715299 C21.4039816,102.905633 22.9877462,103.508546 23.5873779,102.460037 Z" id="Path" fill="#FFDC64"></path>
                <path d="M12.1450764,48.355391 C11.4449826,48.4137548 10.9799906,47.6157809 11.3521386,46.9949109 L39.375,0.246319113 C38.9580707,-0.0976247463 38.3017931,-0.119762736 37.9043591,0.427246866 L0.424344099,52.0107756 C-0.667393026,53.5133414 0.488620702,55.6494561 2.28643534,55.4522268 L30.2415457,52.3841026 L21.0770148,101.75343 C20.9534802,102.419381 21.3843071,102.887901 21.8879037,103 L37.5920481,51.1876449 C38.3282372,48.7591074 36.4709715,46.3261424 34.0359885,46.5294094 L12.1450764,48.355391 Z" id="Path" fill="#FFC850"></path>
            </g>
        </g>
    </g>
</svg>