<?xml version="1.0" encoding="UTF-8"?>
<svg width="130px" height="130px" viewBox="0 0 130 130" version="1.1" xmlns="http://www.w3.org/2000/svg" xmlns:xlink="http://www.w3.org/1999/xlink">
    <!-- Generator: Sketch 52.5 (67469) - http://www.bohemiancoding.com/sketch -->
    <title>product/adapt</title>
    <desc>Created with Sketch.</desc>
    <g id="product/adapt" stroke="none" stroke-width="1" fill="none" fill-rule="evenodd">
        <g id="shapes">
            <path d="M130,32.5 C130,50.4489898 115.44899,65 97.5,65 C79.5510102,65 65,50.4489898 65,32.5 C65,14.5510102 79.5510102,0 97.5,0 C115.44899,0 130,14.5510102 130,32.5 Z" id="Path" fill="#2F5568"></path>
            <path d="M81.25,24.375 L66.0681915,24.375 C65.393753,26.9795226 65,29.6891786 65,32.5 C65,50.4192353 79.5807647,65 97.5,65 C100.310821,65 103.020477,64.606247 105.625,63.9318085 L105.625,48.75 C105.625,35.3068544 94.6931456,24.375 81.25,24.375 Z" id="Path" fill="#3F6C83"></path>
            <path d="M81.25,97.5 L48.75,97.5 C39.776001,97.5 32.5,90.223999 32.5,81.25 L32.5,48.75 C32.5,39.776001 39.776001,32.5 48.75,32.5 L81.25,32.5 C90.223999,32.5 97.5,39.776001 97.5,48.75 L97.5,81.25 C97.5,90.223999 90.223999,97.5 81.25,97.5 Z" id="Path" fill="#F9CA3E"></path>
            <path d="M32.5,81.25 C32.5,90.223999 39.776001,97.5 48.75,97.5 L73.125,97.5 L73.125,56.875 L32.5,56.875 L32.5,81.25 Z" id="Path" fill="#F1D173"></path>
            <polygon id="Path" fill="#D04931" points="0 65 65 65 65 130 0 130"></polygon>
            <g id="Group" transform="translate(8.125000, 73.125000)" fill="#FFFFFF">
                <polygon id="Path" points="0 0 8.125 0 8.125 8.125 0 8.125"></polygon>
                <polygon id="Path" points="0 16.25 8.125 16.25 8.125 24.375 0 24.375"></polygon>
                <polygon id="Path" points="16.25 0 24.375 0 24.375 8.125 16.25 8.125"></polygon>
            </g>
        </g>
    </g>
</svg>