<?xml version="1.0" encoding="UTF-8"?>
<svg width="130px" height="130px" viewBox="0 0 130 130" version="1.1" xmlns="http://www.w3.org/2000/svg" xmlns:xlink="http://www.w3.org/1999/xlink">
    <!-- Generator: Sketch 52.5 (67469) - http://www.bohemiancoding.com/sketch -->
    <title>product/environmet</title>
    <desc>Created with Sketch.</desc>
    <g id="product/environmet" stroke="none" stroke-width="1" fill="none" fill-rule="evenodd">
        <g id="planet-earth" transform="translate(4.000000, 0.000000)">
            <ellipse id="Oval" fill="#2F5568" cx="68.2028831" cy="41.9173828" rx="41.6344253" ry="41.9173828"></ellipse>
            <path d="M68.2031353,0 C91.1972718,0 109.837561,18.7672266 109.837561,41.9176367 C109.837561,65.067793 91.1972718,83.8347656 68.2031353,83.8347656 C68.2031353,50.4912891 68.2031353,19.1475781 68.2031353,0 Z" id="Path" fill="#2F5568"></path>
            <g id="Group" transform="translate(26.480191, 0.000000)" fill="#84C8A8">
                <path d="M29.0338897,57.4216602 C34.8133804,62.2141406 35.4352866,68.0742969 37.2757859,69.9557422 C42.5226465,75.3192578 49.4450727,69.8328516 46.3653005,63.5659375 C45.3043275,61.4067188 42.0820666,53.8697656 47.0343666,46.8370703 C52.1311728,39.5994727 41.105578,30.7675977 35.2471511,37.2805469 C29.6252806,43.5304492 14.9956058,36.0788086 23.7575226,23.4941992 C28.4767969,16.7161719 22.6246748,10.7125586 14.9292792,9.98943359 L14.7638411,9.9775 C6.4377126,17.1082031 0.936137783,27.4792578 0.181326257,39.1548828 C4.76668649,42.0504297 11.6328738,43.7983203 17.1947226,47.7143164 C20.5483757,50.0751367 25.2737026,54.3034375 29.0338897,57.4216602 Z" id="Path"></path>
                <path d="M44.1462605,13.8874023 C56.9467846,17.5957031 59.3862406,4.02085938 59.3975893,3.95712891 C54.0321983,1.42035156 48.0426314,0 41.7229448,0 C40.8914668,0 40.0665458,0.027421875 39.247173,0.0759179687 C35.3101992,4.67568359 38.6472076,12.2943945 44.1462605,13.8874023 Z" id="Path"></path>
            </g>
            <g id="Group" transform="translate(68.091918, 0.000000)" fill="#84C8A8">
                <path d="M34.7399924,18.641543 C35.1374475,21.0676172 32.0069846,23.0673828 30.1286564,23.4660156 C27.2196183,24.0835156 23.9333006,23.8552539 21.2391303,25.2743359 C18.307395,26.8185938 17.0320585,31.2530664 18.2390508,34.2913086 C19.0894433,36.4322461 21.0517515,37.6172266 23.2871839,37.7469727 C27.0398052,37.9650781 29.5402918,39.4605859 30.5036663,44.0532422 C30.5036663,44.0532422 33.1025079,52.7660352 39.5914155,55.2591406 C40.9880564,51.0681641 41.7458943,46.5824023 41.7458943,41.9178906 C41.7456421,33.3051367 39.1642018,25.3002344 34.7399924,18.641543 Z" id="Path"></path>
                <path d="M0.111468992,0 L0.111468992,12.7166406 C0.851905558,13.2330859 1.66598227,13.6357812 2.53453252,13.8874023 C15.3350566,17.5957031 17.7745126,4.02085938 17.7858613,3.95712891 C12.4204703,1.42035156 6.43115561,0 0.111468992,0 Z" id="Path"></path>
                <path d="M5.42289083,46.8368164 C8.8978484,41.9021484 4.87815548,36.2281055 0.1112168,35.1799805 L0.1112168,72.1261328 C3.9518532,72.2543555 6.99001372,68.1164453 4.75382468,63.5656836 C3.69259952,61.4064648 0.470590814,53.8695117 5.42289083,46.8368164 Z" id="Path"></path>
            </g>
            <path d="M57.3059064,78.4004102 L78.7838628,78.4004102 C83.632764,78.4004102 87.7624128,74.6042578 87.9346601,69.7257031 C88.115482,64.6036523 84.0450984,60.3943945 78.9982263,60.3943945 L57.5974407,60.3943945 C51.4921175,60.3943945 45.6369691,62.8362109 41.3199415,67.1825781 L18.5270544,90.1303711 L38.3339848,110.071914 L48.0625546,100.277227 L76.4001413,100.277227 C82.5054645,100.277227 88.3606129,97.8354102 92.6776405,93.489043 L119.225671,66.7605859 C122.794444,63.1675586 122.716264,57.2931836 118.99088,53.8001953 C115.442534,50.4730078 109.856223,50.7289453 106.427669,54.1808008 L86.5912318,74.1520508" id="Path" fill="#F9CA3E"></path>
            <path d="M118.990628,53.7999414 L84.8553922,88.167168 L57.148034,88.1877344 L57.3059064,78.4004102 L78.7838628,78.4004102 C81.9713212,78.4004102 84.8478265,76.759668 86.4938856,74.2495508 L106.427416,54.1805469 C109.855971,50.7284375 115.442282,50.4727539 118.990628,53.7999414" id="Path" fill="#F9CA3E"></path>
            <polygon id="Path" fill="#D04931" points="17.548044 81.7057617 48.1843634 112.550293 30.8521961 130 0.216128793 99.1554688"></polygon>
            <ellipse id="Oval" fill="#FFFFFF" cx="32.3764463" cy="114.085156" rx="3.78288436" ry="3.80859375"></ellipse>
        </g>
    </g>
</svg>