<?xml version="1.0" encoding="UTF-8"?>
<svg width="130px" height="130px" viewBox="0 0 130 130" version="1.1" xmlns="http://www.w3.org/2000/svg" xmlns:xlink="http://www.w3.org/1999/xlink">
    <!-- Generator: Sketch 52.5 (67469) - http://www.bohemiancoding.com/sketch -->
    <title>product/ethic</title>
    <desc>Created with Sketch.</desc>
    <g id="product/ethic" stroke="none" stroke-width="1" fill="none" fill-rule="evenodd">
        <g id="no-weapons">
            <g id="Group" transform="translate(24.121094, 61.191406)" fill="#2F5568">
                <path d="M44.6875,3.80859375 L44.6875,11.4257812 C44.6875,14.7773437 43.2402344,17.8239648 40.8789062,19.8808594 C38.8984375,21.7089844 36.2324219,22.8515625 33.2617187,22.8515625 L25.6445312,22.8515625 C23.5114648,22.8515625 21.8359375,21.1755273 21.8359375,19.0429688 C21.8359375,16.9099023 23.5114648,15.234375 25.6445312,15.234375 L33.2617187,15.234375 C35.3947852,15.234375 37.0703125,13.5583398 37.0703125,11.4257812 L37.0703125,3.80859375 C37.0703125,1.67552734 38.7458398,0 40.8789062,0 C43.0119727,0 44.6875,1.67552734 44.6875,3.80859375 Z" id="Path"></path>
                <path d="M18.8604102,38.0859375 L7.67253906,38.0859375 C2.70460938,38.0859375 -0.924980469,33.4183789 0.28234375,28.6203125 L6.71683594,2.88615234 C7.14085938,1.1903125 8.66201172,0 10.4101563,0 L29.453125,0 C30.6246484,0 31.7329492,0.539296875 32.4545508,1.46529297 C33.1761523,2.38773437 33.4328516,3.59277344 33.1464453,4.73078125 L26.2508594,32.3133789 C25.4028125,35.7129297 22.3640625,38.0859375 18.8604102,38.0859375 Z" id="Path"></path>
            </g>
            <path d="M103.085938,38.3398438 L34.53125,38.3398438 C28.2087305,38.3398438 23.1054688,43.4431055 23.1054688,49.765625 L23.1054688,57.3828125 C23.1054688,63.7048242 28.2087305,68.8085938 34.53125,68.8085938 L87.8515625,68.8085938 C89.9846289,68.8085938 91.6601563,67.1325586 91.6601563,65 L91.6601563,61.1914063 L103.085938,61.1914063 C105.219004,61.1914063 106.894531,59.5153711 106.894531,57.3828125 L106.894531,42.1484375 C106.894531,40.0153711 105.219004,38.3398438 103.085938,38.3398438 Z" id="Path" fill="#F9CA3E"></path>
            <g id="Group" transform="translate(65.000000, 30.722656)" fill="#2F5568">
                <path d="M22.8515625,15.234375 C20.7464258,15.234375 19.0429688,13.530918 19.0429688,11.4257812 L19.0429688,3.80859375 C19.0429688,1.70345703 20.7464258,0 22.8515625,0 C24.9566992,0 26.6601563,1.70345703 26.6601563,3.80859375 L26.6601563,11.4257812 C26.6601563,13.530918 24.9566992,15.234375 22.8515625,15.234375 Z" id="Path"></path>
                <path d="M3.80859375,34.2773437 L3.80859375,41.8945312 C3.80859375,45.2460938 2.36132813,48.2927148 0,50.3496094 L0,30.46875 C2.13306641,30.46875 3.80859375,32.1442773 3.80859375,34.2773437 Z" id="Path"></path>
            </g>
            <path d="M106.894531,42.1484375 L106.894531,57.3828125 C106.894531,59.5153711 105.219004,61.1914063 103.085938,61.1914063 L91.6601563,61.1914063 L91.6601563,65 C91.6601563,67.1325586 89.9846289,68.8085938 87.8515625,68.8085938 L65,68.8085938 L65,38.3398438 L103.085938,38.3398438 C105.219004,38.3398438 106.894531,40.0153711 106.894531,42.1484375 Z" id="Path" fill="#F9CA3E"></path>
            <path d="M65,0 C29.1992187,0 0,29.122793 0,65 C0,100.724609 29.1992187,130 65,130 C100.877207,130 130,100.648437 130,65 C130,29.1992187 100.724609,0 65,0 Z M65,122.382812 C33.5410156,122.458984 7.54101563,96.5351562 7.6171875,65 C7.6171875,50.450918 13.3552148,37.1970117 22.0390625,27.4472656 L65,70.4079492 L102.552734,107.960937 C92.8029883,116.644277 79.5485742,122.382812 65,122.382812 Z M107.960938,102.552734 L27.4472656,22.0390625 C37.1970117,13.3552148 50.4514258,7.6171875 65,7.6171875 C96.5351563,7.6171875 122.382813,33.4648437 122.382813,65 C122.382813,79.6247461 116.644785,92.8024805 107.960938,102.552734 Z" id="Shape" fill="#D04931" fill-rule="nonzero"></path>
            <path d="M130,65 C130,100.648437 100.877207,130 65,130 L65,122.382812 C79.5485742,122.382812 92.8029883,116.644277 102.552734,107.960937 L65,70.4079492 L65,59.5917969 L107.960937,102.552734 C116.644531,92.8024805 122.382812,79.625 122.382812,65 C122.382812,33.4648437 96.5351562,7.6171875 65,7.6171875 L65,0 C100.724609,0 130,29.1992187 130,65 Z" id="Path" fill="#D04931"></path>
        </g>
    </g>
</svg>