<?xml version="1.0" encoding="UTF-8"?>
<svg width="130px" height="130px" viewBox="0 0 130 130" version="1.1" xmlns="http://www.w3.org/2000/svg" xmlns:xlink="http://www.w3.org/1999/xlink">
    <!-- Generator: Sketch 52.5 (67469) - http://www.bohemiancoding.com/sketch -->
    <title>product/fast</title>
    <desc>Created with Sketch.</desc>
    <g id="product/fast" stroke="none" stroke-width="1" fill="none" fill-rule="evenodd">
        <g id="lightning-copy" transform="translate(25.000000, 0.000000)">
            <path d="M29.7704769,129.318494 L79.146828,42.9791665 C80.2646766,41.0243416 78.6792868,38.618833 76.4735925,38.9235206 L43.6296982,43.4570183 L51.4771398,1.61782379 C51.7416631,0.207374072 49.9510053,-0.600809807 49.09743,0.543546066 L0.549651946,65.62228 C-0.864472668,67.5176908 0.632909283,70.2129066 2.96161449,69.9640784 L39.1718054,66.0932763 L27.3010093,128.378533 C27.0147341,129.880896 29.0136602,130.641854 29.7704769,129.318494 Z" id="Path" fill="#FFDC64"></path>
            <path d="M15.3287372,61.031076 C14.4451236,61.1047391 13.8582405,60.0975875 14.3279419,59.3139652 L49.6966019,0.310888201 C49.1703805,-0.123215699 48.3420689,-0.151156851 47.8404532,0.539243618 L0.535579931,65.6446683 C-0.842340713,67.5411105 0.61670574,70.2371776 2.88579218,69.9882474 L38.1689412,66.1158577 L26.6020575,128.426659 C26.44614,129.26718 26.9899022,129.858516 27.6255095,130 L47.4462743,64.6057654 C48.375445,61.540621 46.0313233,58.4698884 42.9580438,58.726439 L15.3287372,61.031076 Z" id="Path" fill="#D04931"></path>
        </g>
    </g>
</svg>