<?xml version="1.0" encoding="UTF-8"?>
<svg width="130px" height="130px" viewBox="0 0 130 130" version="1.1" xmlns="http://www.w3.org/2000/svg" xmlns:xlink="http://www.w3.org/1999/xlink">
    <!-- Generator: Sketch 52.5 (67469) - http://www.bohemiancoding.com/sketch -->
    <title>product/secure</title>
    <desc>Created with Sketch.</desc>
    <g id="product/secure" stroke="none" stroke-width="1" fill="none" fill-rule="evenodd">
        <g id="locked" transform="translate(17.000000, 0.000000)">
            <path d="M26.6022253,59.3726474 L68.3977747,59.3726474 L68.3977747,29.5217315 C68.3977747,19.2422783 59.0740981,10.6273526 47.5,10.6273526 C35.9259019,10.6273526 26.6022253,19.2422783 26.6022253,29.5217315 L26.6022253,59.3726474 Z M16,29.5217315 C16,13.1709774 30.2545551,0 47.5,0 C64.7454449,0 79,13.1709774 79,29.5217315 L79,70 L16,70 L16,29.5217315 Z" id="Path" fill="#F9CA3E" fill-rule="nonzero"></path>
            <rect id="Rectangle" fill="#2F5568" x="0" y="57" width="96" height="73"></rect>
            <path d="M48,103 C44.15,103 41,99.9625 41,96.25 L41,82.75 C41,79.0375 44.15,76 48,76 C51.85,76 55,79.0375 55,82.75 L55,96.25 C55,99.9625 51.85,103 48,103 Z" id="Path" fill="#D04931"></path>
            <rect id="Rectangle" fill="#F9CA3E" x="0" y="116" width="96" height="14"></rect>
        </g>
    </g>
</svg>