<?xml version="1.0" encoding="UTF-8"?>
<svg width="130px" height="130px" viewBox="0 0 130 130" version="1.1" xmlns="http://www.w3.org/2000/svg" xmlns:xlink="http://www.w3.org/1999/xlink">
    <!-- Generator: Sketch 52.5 (67469) - http://www.bohemiancoding.com/sketch -->
    <title>product/time</title>
    <desc>Created with Sketch.</desc>
    <g id="product/time" stroke="none" stroke-width="1" fill="none" fill-rule="evenodd">
        <g id="stopwatch">
            <circle id="Oval" fill="#2F5568" cx="65" cy="62.8333333" r="62.8333333"></circle>
            <path d="M65,130 C29.159,130 0,100.841 0,65 C0,47.6818333 6.73183333,31.3863333 18.9561667,19.1186667 C20.644,17.4178333 23.3913333,17.4178333 25.0835,19.1056667 C26.78,20.7956667 26.7843333,23.5386667 25.0965,25.233 C14.5015,35.8691667 8.66666667,49.9893333 8.66666667,65 C8.66666667,96.0635 33.9365,121.333333 65,121.333333 C96.0635,121.333333 121.333333,96.0635 121.333333,65 C121.333333,35.3968333 98.3775,11.0521667 69.3333333,8.83133333 L69.3333333,32.1381667 C69.3333333,34.5301667 67.392,36.4715 65,36.4715 C62.608,36.4715 60.6666667,34.5301667 60.6666667,32.1381667 L60.6666667,4.33333333 C60.6666667,1.94133333 62.608,0 65,0 C100.841,0 130,29.159 130,65 C130,100.841 100.841,130 65,130 Z" id="Path" fill="#F9CA3E"></path>
            <path d="M43.3333333,43.5955 L71.3786667,63.882 C74.139,65.8883333 74.4531667,69.888 72.0395,72.3016667 C69.6258333,74.7153333 65.6283333,74.4011667 63.6198333,71.6408333 L43.3333333,43.5955 Z" id="Path" fill="#D04931"></path>
        </g>
    </g>
</svg>